<?xml version="1.0" encoding="UTF-8"?>
<svg xmlns="http://www.w3.org/2000/svg" width="580.18" height="469.59" viewBox="0 0 580.18 469.59">
  <defs>
    <style>
      .cls-1 {
        fill: #131313;
      }

      .cls-1, .cls-2, .cls-3 {
        stroke-width: 0px;
      }

      .cls-4 {
        stroke: #33e580;
      }

      .cls-4, .cls-5 {
        fill: none;
        stroke-width: 18px;
      }

      .cls-4, .cls-5, .cls-6 {
        stroke-miterlimit: 10;
      }

      .cls-5 {
        stroke: #fff;
      }

      .cls-6 {
        stroke: #000;
      }

      .cls-6, .cls-3 {
        fill: #33e580;
      }

      .cls-2 {
        fill: #fff;
      }
    </style>
  </defs>
  <g id="Calque_2" data-name="Calque 2">
    <circle class="cls-6" cx="326.9" cy="314.72" r="16"/>
    <circle class="cls-5" cx="326.9" cy="314.72" r="46.99"/>
    <circle class="cls-4" cx="326.03" cy="313.95" r="83.43"/>
  </g>
  <g id="Calque_5" data-name="Calque 5">
    <path class="cls-2" d="M42.8,112.19h38.75v27.76s-2.31,24.29,26.02,24.29,28.92-26.02,28.92-26.02v-26.02h156.72v26.02s-.58,26.02,27.18,26.02,28.92-26.02,28.92-26.02v-26.02h78.65s-82.12,56.67-92.53,83.86H16.77v218.02s-2.89,37.59,34.7,37.59h322.43s45.38,3.47,45.38-38.75,2.31-51.2,2.31-51.2c0,0,8.67-29.77,8.67-36.7v-16.79c-.87-6.62-2.36-11.23-3.88-16.88-4.52-16.72-7.68-23.62-8.78-34-.85-8.02.52-23.71.52-23.71l17.93-19.08v200.1s2.93,54.94-62.15,54.94H50.31S0,466.7,0,415.81V152.1s4.05-39.9,42.8-39.9Z"/>
    <rect class="cls-3" x="38.17" y="216.87" width="33.54" height="30.07"/>
    <rect class="cls-3" x="91.95" y="216.87" width="30.07" height="30.07"/>
    <rect class="cls-2" x="142.84" y="216.87" width="31.52" height="31.52"/>
    <rect class="cls-2" x="194.89" y="216.87" width="31.52" height="31.52"/>
    <rect class="cls-2" x="194.89" y="261.4" width="31.52" height="31.52"/>
    <rect class="cls-2" x="194.89" y="307.66" width="31.52" height="31.52"/>
    <rect class="cls-2" x="194.89" y="354.51" width="30.07" height="30.07"/>
    <rect class="cls-2" x="143.57" y="262.12" width="30.07" height="30.07"/>
    <rect class="cls-2" x="91.95" y="262.12" width="30.07" height="30.07"/>
    <rect class="cls-2" x="39.9" y="262.12" width="30.07" height="30.07"/>
    <rect class="cls-2" x="143.57" y="308.39" width="30.07" height="30.07"/>
    <rect class="cls-2" x="91.95" y="308.39" width="30.07" height="30.07"/>
    <rect class="cls-2" x="41.64" y="308.39" width="30.07" height="30.07"/>
    <rect class="cls-2" x="144.29" y="354.51" width="30.07" height="30.07"/>
    <rect class="cls-2" x="91.95" y="354.51" width="30.07" height="30.07"/>
    <rect class="cls-2" x="39.9" y="354.65" width="30.07" height="30.07"/>
    <rect class="cls-2" x="143.57" y="400.63" width="30.07" height="30.07"/>
    <rect class="cls-2" x="195.61" y="399.9" width="30.07" height="30.07"/>
    <rect class="cls-2" x="91.95" y="400.63" width="30.07" height="30.07"/>
    <rect class="cls-2" x="39.9" y="400.63" width="30.07" height="30.07"/>
  </g>
  <g id="Calque_3" data-name="Calque 3">
    <path class="cls-2" d="M440.1,112.19l67.08-65.93L482.89,0l-46.84,53.78s10.41,30.07,4.05,58.41Z"/>
    <path class="cls-2" d="M471.61,132.9l60.57-71.96,48,20.66-50.02,50.84s-30.78-8.07-58.55.46Z"/>
    <g>
      <path class="cls-2" d="M297.34,290.74c2.88-4.41,30.36-41.64,38.45-52.59-9.01-11.99-1.12-27.89,4.83-35.13l.12-.15c8.98-10.03,38.52-42.93,41.71-45.32,1.71-1.28,3.82-1.93,6.27-1.93,1.34,0,2.63.2,3.71.45,5.88-5.57,23.82-22.21,37.28-31.07,14.84-9.77,45.04-38.7,47.06-40.63,40.89-44.9,48.45-44.9,51.3-44.9,2.4,0,4.07,1.2,4.92,2.67,2.6,3.74.84,9.26-13.99,27.71-8.87,11.02-19.53,23-24.65,28.75-10.29,11.56-31.74,45.89-33.2,48.22-2.32,4.33-19.71,36.8-23.77,42.41-1.96,2.7.26,5.86.52,6.21l2.15,2.78-2.21,2.72c-1.11,1.41-27.38,34.57-43.72,46.18-9.89,7.03-20.66,8.51-27.95,8.51h0c-3.5,0-6.37-.34-8.21-.63l-75.2,58.03,14.58-22.3Z"/>
      <path class="cls-1" d="M528.07,43.98c.95,0,1.08.55,1.08.55,3.47,4.24-27.18,38.75-38.17,51.08-10.99,12.34-33.73,48.96-33.73,48.96,0,0-19.47,36.43-23.52,42.02-4.05,5.59.58,11.57.58,11.57,0,0-26.8,33.93-42.8,45.3-8.82,6.27-18.47,7.68-25.34,7.68-5.59,0-9.36-.93-9.36-.93l-55.71,42.99c3.28-5.01,40.48-55.33,40.48-55.33-13.49-12.53,2.51-32,2.51-32,0,0,37.98-42.41,41.06-44.72,1.03-.77,2.31-1.03,3.57-1.03,2.51,0,4.91,1.03,4.91,1.03,0,0,22.75-21.98,38.55-32.39,15.81-10.41,47.81-41.25,47.81-41.25,35.21-38.68,45.25-43.54,48.07-43.54M528.07,34.98c-4.56,0-9.68,2.71-17.65,9.35-8.95,7.45-21.36,19.87-36.88,36.91-2.75,2.64-32.02,30.61-46.31,40.02-12.65,8.33-29.07,23.28-36.25,30.01-.73-.09-1.48-.14-2.26-.14-3.4,0-6.5.98-8.97,2.83-2.52,1.89-16.77,17.34-42.37,45.92l-.13.14-.12.15c-6.35,7.73-14.52,24.18-6.84,37.84-10.04,13.59-33.95,46.03-36.73,50.27l-29.17,44.62,42.2-32.56,52.61-40.6c1.88.23,4.24.41,6.96.41,7.94,0,19.69-1.62,30.56-9.34,16.86-11.98,43.52-45.63,44.64-47.06l4.62-5.85-4.49-5.16c-.18-.29-.35-.69-.4-.96,4.31-6.06,20.37-36,23.95-42.7,1.98-3.18,22.76-36.37,32.66-47.48,5.15-5.78,15.87-17.81,24.8-28.92,5.07-6.3,8.76-11.3,11.29-15.28,2.36-3.71,7.13-11.22,3.07-17.55-1.75-2.96-5.06-4.87-8.79-4.87h0Z"/>
    </g>
  </g>
</svg>