<?xml version="1.0" encoding="UTF-8"?>
<svg id="Calque_2" data-name="Calque 2" xmlns="http://www.w3.org/2000/svg" width="439.63" height="658.16" viewBox="0 0 439.63 658.16">
  <defs>
    <style>
      .cls-1 {
        fill: #67c985;
      }

      .cls-1, .cls-2 {
        stroke-width: 0px;
      }

      .cls-2 {
        fill: #fff;
      }
    </style>
  </defs>
  <circle class="cls-2" cx="130.5" cy="130.5" r="130.5"/>
  <path class="cls-2" d="M270.43,125.33h67.43c2.54,0,4.55,2.15,4.38,4.68l-.96,14.36c-.15,2.3-2.07,4.09-4.38,4.09h-23.45c-1.95,0-3.66,1.29-4.21,3.16l-38.31,131.18c-.82,2.81,1.29,5.62,4.21,5.62h30.26c1.91,0,3.6-1.24,4.18-3.06l48.34-152.59c.02-.07.04-.13.06-.21.31-1.19,3.61-13.24,10.39-17.64s26.81-19.75,30.61-22.66c.4-.31.73-.67,1.01-1.09,2.73-4.2,19.25-27.76,36.2-10.61.31.31.56.67.77,1.05,1.47,2.79,6.71,14.47-3.45,22.25-.21.16-.4.33-.58.52-1.18,1.31-7.13,7.08-18.67,5.74-1.03-.12-2.08.15-2.94.74l-25.36,17.39c-.17.12-.32.24-.47.38-1.22,1.11-6.61,6.27-7.46,11.73-.96,6.17-42.8,143.04-42.8,143.04,0,0-7.9,28.53-35.08,28.53H117.63c-.16,0-.33,0-.49-.03-3.1-.36-33.78-4.63-42.93-33.9l-4.93-16.07c-1.03-3.35,2.09-6.49,5.45-5.49l13.61,4.06c1.07.32,1.99,1.04,2.55,2.01l8.98,15.58c.11.19.2.38.28.58.61,1.52,3.88,8.62,11.46,8.97,5.38.24,11.53.33,15.31.37,2.08.02,3.88-1.43,4.32-3.47l3.11-14.5c.45-2.08,2.33-3.55,4.46-3.46l11.65.45c2.55.1,4.47,2.34,4.19,4.87l-1.26,11.36c-.28,2.56,1.69,4.82,4.27,4.87l29.2.6c2,.04,3.77-1.27,4.31-3.2l9.65-34.28c.37-1.33,1.35-2.41,2.64-2.9,2.28-.88,6.18-2.51,10.11-4.74,3.28-1.86,7.23.93,6.51,4.63l-6.87,35.12c-.52,2.65,1.46,5.14,4.16,5.23l26.92.88c2,.07,3.79-1.23,4.35-3.15l38.68-132.31c.81-2.78-1.25-5.57-4.15-5.62l-13.69-.2c-2.89-.04-4.95-2.81-4.15-5.58.9-3.14,1.56-7.38.75-12.11-.46-2.69,1.59-5.15,4.31-5.15Z"/>
  <path class="cls-1" d="M137.18,185.01c-13.7,0-25.93-8.17-33.81-20.86-1.61-2.59.21-5.98,3.23-5.98h39.29c2.11,0,3.82-1.74,3.82-3.89v-14.46c0-2.15-1.71-3.89-3.82-3.89h-47.88c-2.08,0-3.77-1.69-3.82-3.81-.01-.54-.02-1.08-.02-1.63s0-1.08.02-1.61c.05-2.12,1.74-3.81,3.82-3.81h47.88c2.11,0,3.82-1.74,3.82-3.89v-14.47c0-2.15-1.71-3.89-3.82-3.89h-39.29c-3.02,0-4.84-3.38-3.23-5.98,7.88-12.69,20.11-20.85,33.81-20.85s27.33,8.93,35.35,23.53c.98,1.79,3.16,2.48,4.98,1.6l12.85-6.25c1.98-.96,2.75-3.42,1.7-5.38-11.83-22.16-32.53-35.74-54.88-35.74-17.71,0-34.23,8.23-46.53,23.2-5.63,6.86-10.06,14.75-13.15,23.33-.55,1.53-1.98,2.55-3.59,2.55h-17.24c-2.11,0-3.82,1.74-3.82,3.89v14.47c0,2.15,1.71,3.89,3.82,3.89h11.82c2.13,0,3.86,1.78,3.82,3.95,0,.49-.01.98-.01,1.47s0,.99.01,1.48c.03,2.18-1.68,3.96-3.82,3.96h-11.82c-2.11,0-3.82,1.74-3.82,3.89v14.46c0,2.15,1.71,3.89,3.82,3.89h17.24c1.6,0,3.03,1.02,3.59,2.55,3.09,8.57,7.52,16.46,13.15,23.31,12.3,14.97,28.83,23.22,46.53,23.22,22.35,0,43.05-13.59,54.88-35.74,1.05-1.96.28-4.42-1.7-5.38l-12.85-6.26c-1.82-.88-4-.19-4.98,1.6-8.02,14.61-21.3,23.54-35.35,23.54Z"/>
  <circle class="cls-2" cx="130.5" cy="385.37" r="46.84"/>
  <circle class="cls-1" cx="130.5" cy="385.37" r="25.26"/>
  <circle class="cls-2" cx="290.44" cy="385.37" r="46.84"/>
  <circle class="cls-1" cx="290.44" cy="385.37" r="25.26"/>
  <path class="cls-2" d="M12.33,227.91c8.08,4.83,13.02,13.54,13.02,22.95v241.6s0,35.13,35.13,35.13h294.25c.15,0,.3,0,.45.02,3.06.25,41.23,2.48,41.23-41.44v-247c0-2.14,1.18-4.11,3.07-5.11l12.93-6.86c3.86-2.05,8.51.75,8.51,5.11v348.97c0,.36-.03.72-.1,1.08-1.32,6.86-16.06,75.79-76.24,75.79H88.67s-85.11,3.28-85.11-85.11V232.88c0-4.5,4.9-7.28,8.76-4.97h0Z"/>
</svg>