<svg version="1.1" id="Layer_1" xmlns="http://www.w3.org/2000/svg" xmlns:xlink="http://www.w3.org/1999/xlink" x="0px" y="0px"
	 width="100%" viewBox="0 0 1024 384" enable-background="new 0 0 1024 384" xml:space="preserve">
<path fill="white" opacity="1.000000" stroke="white" 
	d="
M129.793594,317.999634 
	C118.638153,320.229492 107.867210,322.211578 97.189224,324.607880 
	C94.588440,325.191528 91.765434,326.507660 91.175873,329.926575 
	C90.945580,331.262054 89.908012,331.989868 88.589516,331.612305 
	C86.774887,331.092621 86.521797,329.567444 86.894829,327.977631 
	C88.038963,323.101471 91.618408,320.670288 96.148781,320.023773 
	C107.493027,318.404968 118.360374,314.348602 129.864532,313.592804 
	C131.482300,313.486542 133.070328,312.927856 135.161163,312.471954 
	C112.642334,298.009155 113.119972,277.123871 118.249687,255.327316 
	C116.166519,253.682816 114.643547,254.573029 113.141258,255.170715 
	C100.150177,260.339172 86.917297,264.877319 73.389671,268.310699 
	C64.894775,270.466827 56.534412,273.426208 47.691216,274.143555 
	C43.448833,274.487732 38.396553,275.002319 36.570297,270.710083 
	C34.945194,266.890656 38.940655,263.842621 41.755531,261.390076 
	C50.877209,253.442505 61.980865,248.700455 72.433144,242.929520 
	C79.120880,239.237061 86.082039,236.043579 92.847473,232.487244 
	C105.230804,225.977798 118.329460,221.150040 131.310059,216.056381 
	C134.262589,214.897797 136.254990,213.200363 137.981583,210.522583 
	C146.715240,196.977493 158.229950,185.958557 170.637161,175.872635 
	C173.078857,173.887741 173.750717,172.060669 173.456329,169.121414 
	C171.884384,153.426819 170.488144,137.714661 169.006348,122.010925 
	C168.866562,120.529404 169.036224,119.198761 170.744110,118.986938 
	C173.189026,118.683678 174.017517,120.569466 174.188980,122.405136 
	C174.699036,127.865211 174.903900,133.352936 175.316650,138.823166 
	C176.075485,148.880157 176.897629,158.932373 177.728699,169.432831 
	C186.271896,163.704773 194.182007,158.018585 202.463333,152.937393 
	C215.232681,145.102493 228.598785,138.418030 242.907303,133.759445 
	C249.850815,131.498779 256.728668,129.036591 263.671082,126.772430 
	C266.832764,125.741295 267.032654,124.313980 265.158173,121.688835 
	C258.618225,112.529785 249.555695,107.140320 239.280884,103.084839 
	C219.983963,95.468323 200.451447,98.548302 180.958084,101.364182 
	C166.546967,103.445908 152.682465,108.019508 139.810135,114.613289 
	C125.408958,121.990189 110.411438,128.996933 101.061813,143.393463 
	C100.109329,144.860123 98.646713,146.940903 96.699089,145.423080 
	C94.683083,143.851974 96.137833,141.878342 97.304726,140.162933 
	C103.560219,130.966827 112.590881,124.950859 121.740997,119.203079 
	C138.648209,108.582558 156.969147,101.264832 176.555817,97.381111 
	C187.302719,95.250191 198.168411,93.360451 209.127716,93.092575 
	C225.072250,92.702850 239.978088,96.628983 253.795883,104.944061 
	C260.412872,108.925941 265.547272,114.127213 269.775848,120.352936 
	C271.480896,122.863297 273.071960,123.851639 276.288086,123.125786 
	C288.954742,120.267021 301.703064,117.866913 314.820801,118.744377 
	C319.293732,119.043579 323.387512,120.086143 326.530487,123.491882 
	C327.796875,124.864143 329.152161,126.640945 327.493408,128.300156 
	C325.588715,130.205368 324.460327,128.389648 323.218140,126.869011 
	C319.961761,122.882683 315.004883,123.004974 310.768738,123.236176 
	C299.524292,123.849861 288.154053,123.913551 277.270111,127.691063 
	C274.462097,128.665649 273.383179,129.574493 273.597931,132.879745 
	C274.028351,139.504517 272.965210,145.926498 270.654327,152.380615 
	C265.497986,166.781921 256.214386,178.011688 245.390854,188.294098 
	C244.227371,189.399399 242.707382,190.297165 242.279480,192.757355 
	C250.182861,193.720428 258.014038,194.693146 265.851379,195.613510 
	C267.336365,195.787933 269.076843,195.285233 270.307648,195.891022 
	C281.236389,201.270035 291.323608,196.203049 301.579468,193.538895 
	C328.118225,186.644974 354.601807,179.535934 381.173248,172.771591 
	C398.553070,168.347153 415.919006,163.691208 433.523560,160.371201 
	C455.703339,156.188370 477.710724,150.879547 500.249542,148.727020 
	C501.823029,148.576752 503.220825,148.183960 504.206116,146.922745 
	C508.391571,141.565048 514.541321,139.348297 520.410645,136.644730 
	C524.155273,134.919861 526.065491,136.673431 527.181091,139.989182 
	C527.716980,141.581757 526.619812,144.519119 529.122620,144.432388 
	C532.679565,144.309143 536.519836,147.186508 539.872437,143.621246 
	C542.510254,140.816116 545.436523,138.432129 549.369263,137.486084 
	C554.927673,136.148987 558.552307,138.381210 559.199463,144.077942 
	C559.791748,149.291916 558.806824,154.275757 556.878113,159.210388 
	C550.167603,176.379333 537.964111,189.538528 525.425964,202.387527 
	C518.253845,209.737488 510.521210,216.546051 502.935883,223.483490 
	C500.821045,225.417694 500.145447,227.347992 501.083252,230.101776 
	C502.088959,233.054947 504.377472,233.731842 506.955383,233.754166 
	C515.107605,233.824814 522.182861,230.597214 528.682800,226.050003 
	C534.529480,221.959747 540.183960,217.594574 545.919922,213.346176 
	C548.671082,211.308533 550.179443,208.308380 552.089905,205.585129 
	C556.957275,198.646927 562.360046,192.148132 569.424500,187.287491 
	C571.040894,186.175323 573.106018,184.914352 574.891541,186.624573 
	C576.770691,188.424545 575.148682,190.206345 574.206726,191.989517 
	C569.533875,200.835541 560.652039,205.547119 554.097839,212.546051 
	C550.194702,216.714066 547.085938,221.154282 545.029785,227.209091 
	C556.585449,226.607513 566.340332,224.829376 574.133667,215.754944 
	C582.766052,205.703537 592.642151,196.715836 602.053528,187.342163 
	C603.645508,185.756531 605.441467,183.734100 608.095215,185.625656 
	C610.553406,187.377899 608.843750,189.423019 608.490051,191.471878 
	C606.952332,200.380081 602.284851,208.221375 599.639282,217.125854 
	C604.641907,218.319427 608.299744,216.082413 611.684937,213.476288 
	C621.687317,205.775894 631.584717,197.939255 641.522766,190.155289 
	C643.202271,188.839828 644.985107,186.710526 647.169189,188.369308 
	C649.591980,190.209381 647.224731,192.255692 646.521606,194.141495 
	C644.752197,198.887726 641.447876,202.713562 638.768250,206.912781 
	C637.981873,208.145020 636.704895,209.134552 637.183533,211.797012 
	C645.671265,210.164993 654.399414,209.982056 662.215637,205.468964 
	C673.292969,199.072845 684.140137,192.247177 695.985352,187.275406 
	C696.138550,187.211105 696.277649,187.112595 696.431641,187.050934 
	C700.068298,185.594849 704.489380,184.104828 707.262451,186.878647 
	C709.820923,189.437943 708.761536,193.745850 706.814392,197.130005 
	C706.384888,197.876511 706.208984,198.665421 707.061584,200.225998 
	C717.722839,197.469681 729.162354,198.328888 739.633179,192.151291 
	C752.926025,184.308685 764.959839,174.385727 779.282715,168.246048 
	C785.616821,165.530838 791.951172,163.706329 798.990540,163.582123 
	C816.960876,163.265015 834.672607,160.997879 852.104980,156.190720 
	C867.945923,151.822433 884.073975,148.505600 900.011047,144.470856 
	C905.800537,143.005157 911.334045,140.519623 917.294067,139.673141 
	C919.027893,139.426895 921.671326,137.975769 922.165161,141.077789 
	C922.527161,143.352234 920.266907,143.862473 918.448914,144.308136 
	C892.471497,150.676193 866.750854,158.050552 840.570740,163.645035 
	C826.495483,166.652802 812.349792,167.903931 798.025574,168.164261 
	C788.021912,168.346069 779.544006,173.142731 771.031433,177.711060 
	C762.128357,182.488846 754.869080,189.838745 745.486023,194.109940 
	C823.355957,182.268143 901.514709,173.619095 979.823364,165.756317 
	C978.135559,170.584656 974.293091,170.959518 970.829651,171.128433 
	C949.885803,172.149826 929.112366,175.103989 908.380188,177.745636 
	C888.281372,180.306549 868.079285,182.003052 848.025391,184.968018 
	C836.528259,186.667862 824.904297,187.493805 813.404297,189.313980 
	C799.295227,191.547119 785.156372,193.595566 771.020386,195.655106 
	C760.660339,197.164505 750.305420,198.747971 739.907898,199.949707 
	C732.314209,200.827393 726.449036,205.394226 719.925659,208.542633 
	C715.977417,210.448196 711.927307,211.746262 707.635803,212.494965 
	C703.666809,213.187393 700.236572,212.694244 698.410522,208.598999 
	C697.601135,206.783600 696.402344,206.899231 694.771484,207.045410 
	C682.981873,208.102310 671.343140,210.241943 659.937866,213.186752 
	C654.632019,214.556747 649.817993,217.980484 644.917786,220.718109 
	C641.847168,222.433594 638.953369,224.332504 635.242065,224.292480 
	C633.061584,224.268967 630.865540,223.711029 630.328918,221.627472 
	C629.385376,217.964066 626.888184,218.085953 624.176697,218.376389 
	C616.076050,219.244110 608.318359,222.029633 600.146606,222.640060 
	C598.124573,222.791107 597.141968,224.830872 597.931641,226.870071 
	C598.575806,228.533646 600.247192,230.091049 598.073975,231.623672 
	C597.403442,232.096558 596.028198,232.134583 595.247437,231.777405 
	C593.183716,230.833206 592.678101,228.884644 592.826904,226.760910 
	C592.883118,225.957962 593.077881,225.164719 593.284546,223.912415 
	C580.483276,225.430084 567.966248,226.554291 557.824219,235.339905 
	C555.542603,237.316345 552.890015,238.701019 550.091919,239.856796 
	C542.485962,242.998505 540.420105,242.228745 536.697937,234.317017 
	C531.962708,235.253128 527.119629,236.291290 522.246399,237.160690 
	C494.277466,242.150482 466.430298,247.731064 438.649933,253.693085 
	C415.923157,258.570526 393.014435,262.596375 370.267975,267.387299 
	C351.749451,271.287750 333.381500,275.897797 314.892822,279.946777 
	C293.492462,284.633362 271.995911,288.885986 250.627304,293.708771 
	C245.747437,294.810089 240.805664,295.333740 235.931427,296.401123 
	C222.368118,299.371399 209.853592,305.327087 196.813339,309.766144 
	C193.439941,310.914459 188.941269,310.197632 186.837402,313.563904 
	C184.876404,316.701569 187.457428,320.357574 187.281036,323.829132 
	C187.230377,324.826477 187.290665,325.832031 187.195999,326.823883 
	C187.096527,327.866058 186.719711,328.807526 185.477219,328.905365 
	C184.247574,329.002197 183.617828,328.160858 183.415451,327.142212 
	C182.832809,324.209534 182.052719,321.266052 181.937225,318.303894 
	C181.805908,314.936005 180.366608,313.724579 177.248001,314.406525 
	C166.714691,316.709747 156.142578,316.337677 145.454407,315.679718 
	C140.438354,315.370911 135.296921,317.099121 129.793594,317.999634 
M356.886108,243.393951 
	C353.608185,247.451691 349.345978,250.437256 345.193146,253.411514 
	C339.441467,257.530853 334.225891,255.626663 331.746521,249.140335 
	C330.641083,246.248398 330.187775,243.461563 331.375427,240.419510 
	C332.581207,237.330948 333.546783,234.129700 334.362823,230.913193 
	C335.165222,227.750473 337.113342,224.865295 337.146942,220.534897 
	C335.896271,222.215637 335.123932,223.079895 334.544373,224.058304 
	C325.148010,239.921051 312.710999,253.240601 299.598206,266.009521 
	C292.934479,272.498474 290.052460,272.466034 284.074799,265.302582 
	C271.064270,274.231720 257.485626,282.328033 243.632278,290.019379 
	C255.737259,287.693420 267.744049,285.195374 279.718170,282.549500 
	C296.899719,278.752991 314.047119,274.802094 331.229004,271.007050 
	C342.419586,268.535339 353.756409,266.643829 364.824493,263.722473 
	C376.044342,260.761047 388.125244,261.478943 398.402527,254.106812 
	C406.235260,248.488190 412.938477,241.448517 416.025665,233.290756 
	C423.817322,212.701935 432.986359,193.222031 447.808441,176.768967 
	C452.125549,171.976807 456.186615,166.777939 462.172760,163.839905 
	C465.593781,162.160843 468.634338,164.380890 468.055267,168.161850 
	C467.812836,169.744919 466.893372,171.250244 466.154541,172.727310 
	C459.558929,185.913132 449.290863,196.531067 441.012054,208.544312 
	C435.266083,216.882278 429.037018,224.886841 423.047852,233.058029 
	C421.482788,235.193237 420.451965,237.431458 422.626678,239.817047 
	C424.793182,242.193695 426.898865,241.446487 429.260529,239.927383 
	C433.728210,237.053574 438.654114,234.809509 442.826080,231.576569 
	C450.335083,225.757660 458.887573,221.021423 462.080383,210.813599 
	C466.389374,197.037384 474.293030,185.071381 482.813965,173.535431 
	C487.427246,167.289825 492.009796,161.021530 497.269592,153.860321 
	C426.850433,164.098999 359.575165,182.959778 292.165375,201.721542 
	C294.734833,204.008163 297.318329,205.496735 299.791962,207.149704 
	C309.679993,213.757217 314.005035,226.126572 309.645630,236.883636 
	C306.863434,243.748856 302.861084,250.194855 296.490082,254.742493 
	C292.664246,257.473389 291.603546,261.692627 291.010895,266.465088 
	C295.730927,264.986603 297.357819,260.973389 300.221893,258.317841 
	C310.350647,248.926468 319.795502,239.010696 326.868469,226.962555 
	C330.374908,220.989700 334.699799,215.487366 338.804504,209.882080 
	C339.949493,208.318512 341.661865,206.404907 343.776978,207.448288 
	C346.212952,208.649918 345.409668,211.219849 344.797729,213.258545 
	C342.218292,221.851791 340.275665,230.664536 336.290680,238.785309 
	C335.448212,240.502121 335.350311,242.286179 335.298035,244.128311 
	C335.216888,246.989059 335.982849,249.754593 338.550568,250.937073 
	C340.736694,251.943848 342.407318,249.683334 344.045471,248.352081 
	C351.250122,242.497299 358.406097,236.581406 365.681274,230.815750 
	C367.132233,229.665863 368.890045,227.937881 370.988342,229.773773 
	C372.786285,231.346863 372.142365,233.316574 371.721405,235.338013 
	C371.036133,238.628738 369.712982,241.667160 368.606750,244.801331 
	C367.998718,246.523972 367.981110,248.547516 369.584442,249.905243 
	C371.374146,251.420807 372.597687,249.618362 373.969421,248.864777 
	C377.538391,246.904037 380.341278,244.103989 382.855560,240.940231 
	C385.230774,237.951477 387.728668,235.059464 390.201263,232.149292 
	C391.169922,231.009232 392.187775,229.650986 393.939148,230.398712 
	C395.693207,231.147614 395.284607,232.902374 395.320068,234.344940 
	C395.424530,238.592117 393.577515,242.441727 392.733154,246.498062 
	C392.360870,248.286621 391.466187,250.165207 393.335999,251.526169 
	C394.922852,252.681168 395.841492,253.820740 394.376312,255.581009 
	C393.410950,256.740784 392.238953,257.888733 390.567078,257.526276 
	C388.412994,257.059296 387.774170,255.321228 387.749786,253.350967 
	C387.704742,249.714828 387.736908,246.077744 387.736908,242.551544 
	C383.986694,247.322220 379.660278,251.702271 373.952637,254.336853 
	C368.623657,256.796631 364.680725,254.395554 364.070801,248.587616 
	C363.628174,244.373108 364.907562,240.434296 366.734253,235.637634 
	C363.108551,238.519409 360.291534,240.758438 356.886108,243.393951 
M280.144745,262.651123 
	C287.798065,257.033295 295.041809,250.918503 300.765472,243.308731 
	C307.102203,234.883881 309.553497,226.082474 302.774811,216.377060 
	C299.630249,211.874832 295.048157,209.762268 290.653656,207.255661 
	C287.569977,205.496765 284.408752,202.657211 280.581818,204.070602 
	C274.931519,206.157410 269.028961,207.144516 263.290863,208.808136 
	C252.281189,212.000153 241.304489,215.348831 230.182251,218.099335 
	C214.851898,221.890503 199.762085,226.384689 184.894470,231.693176 
	C181.349808,232.958817 180.356857,235.003952 180.229126,238.723618 
	C179.700928,254.105515 182.816849,269.188965 183.692490,284.453949 
	C184.026596,290.278381 183.355194,296.360657 185.250549,302.433319 
	C193.942337,299.676392 202.701385,298.753326 211.294678,297.118134 
	C221.980392,295.084717 231.501678,290.808929 240.956024,285.888458 
	C254.238861,278.975525 266.924805,271.073700 280.144745,262.651123 
M176.658401,254.690399 
	C176.192535,248.330704 175.726669,241.971008 175.265396,235.674042 
	C172.479660,235.439941 170.662170,236.317657 168.800385,236.938614 
	C158.105011,240.505829 147.628693,245.122070 136.665680,247.381302 
	C126.264030,249.524857 122.875343,254.976410 121.155579,264.827759 
	C118.278938,281.306000 121.886673,302.012878 140.306900,309.088776 
	C143.079910,310.154022 145.476334,310.750366 148.422974,310.076202 
	C156.839081,308.150604 165.275223,306.242310 173.787445,304.835022 
	C178.460602,304.062408 180.245422,302.264343 179.797760,297.357849 
	C178.530746,283.471710 177.678604,269.547668 176.658401,254.690399 
M182.776566,199.702118 
	C197.272415,195.724075 212.113037,194.282837 227.068527,193.733978 
	C231.435883,193.573715 235.100754,192.064117 238.151871,188.870209 
	C242.285095,184.543564 246.587326,180.378784 250.744339,176.074371 
	C258.374207,168.173981 263.952393,158.930130 266.968170,148.435577 
	C268.584534,142.810898 270.955139,136.838196 267.954742,130.381577 
	C253.385696,135.032288 239.195618,139.379837 225.585312,145.673843 
	C210.083984,152.842331 196.110107,162.271378 182.467529,172.329330 
	C179.883194,174.234634 177.549713,176.377335 178.155884,180.139816 
	C179.031433,185.574097 179.155121,191.057297 179.100006,196.549728 
	C179.080475,198.495575 179.177780,200.412231 182.776566,199.702118 
M59.628487,267.088409 
	C63.470432,266.032104 67.287445,264.872559 71.158676,263.937500 
	C87.318665,260.033997 102.784599,254.051910 118.341179,248.332031 
	C120.411652,247.570740 121.147736,246.192368 121.911102,244.103058 
	C124.626991,236.669800 126.631187,228.944199 130.961624,221.175186 
	C123.254715,224.242706 116.067482,226.680527 109.248207,229.898178 
	C90.044441,238.959351 71.094749,248.550079 52.744564,259.252747 
	C48.810555,261.547241 44.662880,263.973816 41.751972,269.122894 
	C48.251984,269.357086 53.508671,267.975555 59.628487,267.088409 
M508.620300,212.098785 
	C517.629822,203.992783 525.950439,195.214249 534.094788,186.249985 
	C543.968628,175.382172 551.304932,163.142288 555.148254,148.885895 
	C555.884094,146.156387 555.454285,143.679916 553.203369,142.239227 
	C551.207825,140.961914 549.116699,142.197815 547.292786,143.572403 
	C541.711426,147.778763 536.351746,152.234985 531.524719,157.298935 
	C525.041077,164.100784 521.174500,172.714493 515.730164,180.224518 
	C507.395752,191.721207 502.425873,204.421265 500.468018,218.803192 
	C504.010651,217.383148 505.506104,214.316910 508.620300,212.098785 
M468.926056,216.433578 
	C462.675629,220.796967 458.825623,226.474365 459.304260,234.408981 
	C459.664581,240.382446 463.298615,242.509338 468.812012,240.342438 
	C477.419891,236.959335 485.110657,232.094040 492.356201,226.423477 
	C493.759735,225.325012 494.497437,224.155655 494.757599,222.329300 
	C497.358856,204.068176 503.814575,187.414963 514.970032,172.544601 
	C520.596863,165.043976 524.696106,156.416931 531.869446,149.955338 
	C528.168213,149.928329 524.479370,149.201553 522.891846,153.610596 
	C518.963379,164.520813 511.180969,172.856735 503.697144,181.255417 
	C492.881561,193.393097 481.704010,205.220261 468.926056,216.433578 
M143.240936,237.102615 
	C145.110779,236.442551 146.934250,235.446991 148.858566,235.181000 
	C156.815048,234.081238 164.305420,231.429474 171.795319,228.723083 
	C173.393280,228.145691 175.414917,227.588333 175.227173,225.659409 
	C174.625763,219.480194 175.501434,213.108978 173.339172,206.735672 
	C163.138321,208.077408 154.412155,212.794815 145.173752,215.806885 
	C142.484329,216.683731 139.418716,217.472046 137.546951,220.157333 
	C132.281784,227.710831 128.992966,236.051178 126.932388,245.532074 
	C131.727234,244.073441 135.967514,242.735687 140.238663,241.505127 
	C142.265442,240.921188 142.419159,239.243561 143.240936,237.102615 
M474.105835,205.590790 
	C483.750732,195.538589 493.671661,185.758957 502.788422,175.192719 
	C509.067719,167.915054 514.514160,160.213013 518.702698,151.267120 
	C510.702972,150.732071 504.592163,152.517502 499.576019,159.008636 
	C493.083466,167.410355 486.670105,175.857712 480.709198,184.627258 
	C475.247711,192.662094 470.479706,201.120071 467.067596,211.393387 
	C469.810211,209.182388 471.718719,207.643784 474.105835,205.590790 
M223.905579,200.783539 
	C224.575119,200.187103 225.817398,199.956680 225.250366,198.378830 
	C220.506210,198.684250 215.727097,199.057053 210.941101,199.286133 
	C201.614624,199.732544 192.689545,202.492462 183.549316,204.008789 
	C182.083603,204.251938 179.778915,204.578720 179.805573,206.683823 
	C179.884216,212.887024 180.276108,219.086243 180.584488,226.187424 
	C196.045197,218.471512 209.916962,210.172104 223.905579,200.783539 
M232.212341,199.599411 
	C222.898178,208.539566 211.222733,214.075912 199.345673,221.711548 
	C223.678543,214.932266 246.592087,208.548416 269.505615,202.164566 
	C261.851471,198.400558 253.957672,199.014633 246.268494,198.346451 
	C241.823257,197.960159 237.076477,195.633438 232.212341,199.599411 
M422.596710,245.390091 
	C420.782837,244.282913 418.968933,243.175751 416.913513,241.921158 
	C412.919220,245.664185 409.543549,249.777222 406.432037,255.160675 
	C424.094574,251.917160 440.847107,248.406631 458.625977,244.252518 
	C454.717590,239.344955 454.686310,234.305603 454.554504,228.584091 
	C448.080963,234.023422 441.949677,238.012833 435.592651,241.591446 
	C431.836609,243.705872 428.403473,247.351349 422.596710,245.390091 
M143.882263,209.558807 
	C143.838593,212.261993 145.755066,210.931671 146.543152,210.575256 
	C154.584824,206.938324 162.954025,204.244064 171.384048,201.716049 
	C172.581665,201.356873 173.751236,200.884842 173.768234,199.540115 
	C173.846634,193.336182 173.802826,187.130722 173.802826,180.925797 
	C173.244858,180.745270 172.686890,180.564728 172.128922,180.384201 
	C161.800171,188.909119 152.776947,198.762527 143.882263,209.558807 
M600.984375,200.555176 
	C601.882690,198.175674 603.096924,195.874603 603.205505,193.684647 
	C593.922668,202.712296 584.596252,211.782272 574.580505,221.522659 
	C580.907288,222.138229 585.773926,219.576614 590.913757,219.028656 
	C593.622192,218.739914 594.892395,217.246094 595.755188,214.784256 
	C597.343323,210.252838 598.184265,205.445068 600.984375,200.555176 
M448.324921,190.838196 
	C453.208710,184.099564 459.037323,177.968216 461.726013,169.801270 
	C447.726501,183.154205 435.312500,197.620544 429.217529,216.589325 
	C435.445007,208.197906 441.672455,199.806473 448.324921,190.838196 
M700.477783,200.067581 
	C701.577637,196.910309 703.527466,193.977036 703.386292,190.320724 
	C694.784302,192.160950 676.284607,201.421600 671.565125,206.215210 
	C681.126953,204.331818 690.535645,202.478592 700.477783,200.067581 
M635.195007,201.084427 
	C628.907898,204.478638 624.740112,210.539902 618.274597,214.212296 
	C629.827637,214.213684 633.958313,210.868683 637.570801,198.592606 
	C636.748352,199.464386 636.191467,200.054611 635.195007,201.084427 
M482.732605,238.882156 
	C482.003052,239.159210 481.273529,239.436279 480.543976,239.713333 
	C480.598358,239.891891 480.652710,240.070435 480.707092,240.248978 
	C486.781799,239.086487 492.856506,237.923981 499.427582,236.666519 
	C497.795532,234.282455 496.697754,232.678802 495.567749,231.028076 
	C490.734650,232.616119 487.563599,236.499390 482.732605,238.882156 
M718.734558,203.975433 
	C719.270081,203.663834 719.805603,203.352219 720.341187,203.040619 
	C714.777161,204.188660 708.749329,203.058655 703.821350,206.711685 
	C708.922791,207.673538 713.663086,206.628418 718.734558,203.975433 
M542.686218,234.479080 
	C542.585815,237.746109 544.606323,237.629883 546.606567,236.634125 
	C549.349060,235.268814 551.908569,233.535904 554.546509,231.960526 
	C550.511169,232.110779 546.621948,232.263062 542.686218,234.479080 
M516.449524,146.610046 
	C519.669189,146.492096 522.103333,145.581406 521.866882,141.072998 
	C518.373535,142.801910 515.389221,144.278900 512.284851,145.815308 
	C513.481873,147.271744 514.688232,146.483765 516.449524,146.610046 
M538.075500,228.790253 
	C539.904297,227.483002 540.823303,225.667145 541.232300,222.919312 
	C537.699585,225.376099 534.548218,227.567734 531.396851,229.759354 
	C531.504028,229.943130 531.611206,230.126892 531.718384,230.310669 
	C533.628235,229.916397 535.538025,229.522110 538.075500,228.790253 
M636.088928,219.649368 
	C638.976318,219.249191 641.120300,217.619553 643.960449,215.141861 
	C641.193604,215.663910 639.419067,215.876022 637.720459,216.356430 
	C636.249207,216.772552 634.240234,217.061401 636.088928,219.649368 
z"/>
<path fill="#000000" opacity="1.000000" stroke="none" 
	d="
M647.329102,129.357498 
	C645.680298,132.611374 644.275574,135.587189 642.764526,138.507980 
	C642.014832,139.957230 640.745300,140.911575 639.114685,140.078079 
	C637.226013,139.112717 638.104675,137.547531 638.757324,136.231262 
	C640.359741,132.999268 641.954712,129.758270 643.716370,126.612610 
	C644.690796,124.872543 645.502502,121.742584 648.157776,123.231026 
	C651.265503,124.973076 648.309204,127.132332 647.329102,129.357498 
z"/>
<path fill="#000000" opacity="1.000000" stroke="none" 
	d="
M418.109375,186.918716 
	C424.607574,185.791977 428.470398,188.549835 427.759094,193.643921 
	C424.422882,194.072479 421.795532,191.226257 417.974091,191.896469 
	C415.302795,192.364929 416.393585,188.906219 418.109375,186.918716 
z"/>
</svg>